<?xml version="1.0" encoding="utf-8"?>
<!-- Svg Vector Icons : http://www.onlinewebfonts.com/icon -->
<!DOCTYPE svg PUBLIC "-//W3C//DTD SVG 1.1//EN" "http://www.w3.org/Graphics/SVG/1.1/DTD/svg11.dtd">
<svg version="1.1" xmlns="http://www.w3.org/2000/svg" xmlns:xlink="http://www.w3.org/1999/xlink" x="0px" y="0px" viewBox="0 0 1000 1000" enable-background="new 0 0 1000 1000" xml:space="preserve">
<metadata> Svg Vector Icons : http://www.onlinewebfonts.com/icon </metadata>
<g><path d="M401.5,724.1c0,66.3,20,127.9,54.3,179.2l-31.1,74.8c-3.4,8.4-12.3,13.2-21.1,11.3c-32.5-6.4-64.3-16-94.5-28.5s-59.6-28.3-87-46.6c-7.5-5-10.4-14.6-6.9-22.9l31.1-75.1c-23.1-18.4-43.9-39.2-62.3-62.3l-75.2,31.2c-8.4,3.5-18,0.6-23.1-7c-18.4-27.4-34-56.7-46.6-87.1c-12.6-30.4-22.3-62.3-28.7-94.7c-1.6-8.9,3.1-17.8,11.5-21.2l75.1-31.2c-3.2-29.2-3.2-58.7,0.1-88l-75.1-31.1c-8.4-3.4-13.1-12.3-11.3-21.1c6.4-32.5,15.9-64.2,28.5-94.3c-0.1-0.1,0-0.3,0-0.3c12.5-30.3,28.2-59.6,46.6-87c5-7.5,14.6-10.4,23.1-7l75.1,31.1c18.4-23.1,39.2-43.9,62.3-62.3L215,108.7c-3.5-8.4-0.6-18,7-23.1C276.9,49,338.9,23.3,403.6,10.4c8.8-1.6,17.7,3.1,21.1,11.5l31.2,75.3c29.2-3.2,58.7-3.2,88,0.1l31.1-75.1c3.7-8.4,12.4-13.3,21.4-11.4c32.5,6.4,64.3,16,94.5,28.5c30.3,12.5,59.6,28.3,87.1,46.6c7.4,5,10.4,14.6,6.9,22.9l-31,75.2c23.1,18.4,43.9,39.2,62.3,62.3l75.2-31.2c8.4-3.5,18.1-0.6,23,6.8c18.4,27.4,34,56.7,46.6,87.1c12.6,30.4,22.2,62.2,28.6,94.5c1.7,8.9-3,17.8-11.4,21.2l-74.9,31c-51.3-34.3-112.8-54.3-179.2-54.3c-9.5,0-18.9,0.4-28.1,1.2C660.2,331,585.9,281.4,500.2,281.4c-120.6,0-218.8,98.1-218.8,218.8c0,85.7,49.5,160,121.5,196C401.9,705.3,401.5,714.7,401.5,724.1z M989.8,724.1c0,146.8-119,265.8-265.8,265.8c-146.8,0-265.8-119-265.8-265.8c0-146.8,119-265.8,265.8-265.8C870.8,458.4,989.8,577.4,989.8,724.1z M789.3,724.1l96-96c1.5-1.5,2.3-3.5,2.3-5.6c0-2.1-0.8-4.1-2.3-5.6l-54.2-54.2c-3.1-3.1-8.1-3.1-11.1,0l-96,96l-96-95.9c-3-3-8.2-3-11.1,0L562.8,617c-3.1,3.1-3.1,8.1,0,11.1l96,96l-96,96c-1.5,1.5-2.3,3.5-2.3,5.6c0,2.1,0.8,4.1,2.3,5.6l54.2,54.2c1.5,1.5,3.6,2.3,5.6,2.3c2,0,4-0.8,5.6-2.3l96-96l96,96c1.5,1.5,3.5,2.3,5.6,2.3c2.1,0,4.1-0.8,5.6-2.3l54.2-54.2c3.1-3.1,3.1-8.1,0-11.1L789.3,724.1z"/></g>
</svg>